<?xml version="1.0" encoding="UTF-8"?>
<svg width="203px" height="200px" viewBox="0 0 203 200" version="1.1" xmlns="http://www.w3.org/2000/svg" xmlns:xlink="http://www.w3.org/1999/xlink">
    <title>choose</title>
    <defs>
        <polygon id="path-1" points="0.0214207795 0 84.7530991 0 84.7530991 71.1148458 0.0214207795 71.1148458"></polygon>
    </defs>
    <g id="Pop-Ups" stroke="none" stroke-width="1" fill="none" fill-rule="evenodd">
        <g id="choose">
            <path d="M72.9691713,90.0633103 C74.6532015,96.7269578 83.8305775,109.657611 89.2768107,97.0686192 C91.7501967,91.3517702 85.5088956,91.3921127 83.8027305,85.9969323 C81.8734323,79.8980794 89.9472811,70.6703646 95.2921226,68.1737728 C100.636607,65.6761099 118.424779,66.9145879 120.646471,73.5678821 C122.454742,78.98127 116.47406,90.08366 123.037744,93.4995603 C132.750997,98.5559353 137.199379,77.523586 130.734944,67.9270768 C126.145185,61.1152689 111.662953,57.4669532 111.662953,57.4669532 C116.777164,53.9018214 122.850312,52.92789 128.972728,53.2006479 C147.34069,54.0210638 152.936868,62.9224687 155.408469,56.941073 C160.725464,44.0746818 139.952663,40.3217613 127.71997,43.3278107 C119.162011,45.4309742 112.261664,49.3706125 112.261664,49.3706125 C115.696843,45.6823113 119.883177,43.5752207 124.066656,41.6234306 C137.90555,35.1697068 146.54705,42.6077154 148.538111,37.1300651 C152.009348,27.5813957 137.964457,25.6203233 121.084526,35.6356087 C113.081009,40.3831675 107.354521,46.6462464 107.354521,46.6462464 C109.004278,42.7383822 111.936425,39.5324055 114.624733,37.3324915 C123.470801,30.092268 134.108717,30.6552775 129.92631,23.5478629 C126.829222,18.2858484 115.40552,25.2872302 107.877902,33.2964596 C101.420965,40.1650326 98.0043503,48.2453076 98.0043503,48.2453076 L78.7577799,40.2139433 L69.7035734,66.7253711 L77.7585005,69.1398499 C72.2772801,75.6382004 70.5657598,80.5535553 72.9691713,90.0633103" id="Fill-4" fill="#F8D8B8"></path>
            <g id="Group-8">
                <mask id="mask-2" fill="white">
                    <use xlink:href="#path-1"></use>
                </mask>
                <g id="Clip-6"></g>
                <polyline id="Fill-5" fill="#FAF9F7" mask="url(#mask-2)" points="84.7530991 40.6005884 72.165535 70.0955737 62.6932663 67.0220489 75.0809031 36.3385673 84.7530991 40.6005884"></polyline>
                <polyline id="Fill-7" fill="#057D63" mask="url(#mask-2)" points="79.2786619 36.741992 66.1359426 71.1148458 0 52.1974414 0 0 79.2786619 36.741992"></polyline>
            </g>
            <path d="M63.2023669,41.3492447 C63.5772305,43.0971803 65.2980331,44.2103468 67.0459687,43.8351261 C68.7935473,43.4606195 69.9063568,41.7401739 69.5318502,39.9925953 C69.1573436,38.2443027 67.4365409,37.1314932 65.6889623,37.5059998 C63.9410267,37.8805064 62.8278602,39.601309 63.2023669,41.3492447" id="Fill-9" fill="#FAF9F7"></path>
            <path d="M51.0721365,35.5192225 C51.4473571,37.2671581 53.1678027,38.3799676 54.9157383,38.005461 C56.6633169,37.6309543 57.7768404,35.9094377 57.4023338,34.1625731 C57.0274702,32.4142805 55.3066675,31.300757 53.559089,31.6759777 C51.8107963,32.0508413 50.6976298,33.7712869 51.0721365,35.5192225" id="Fill-10" fill="#FAF9F7"></path>
            <path d="M38.3428383,29.6909854 C38.7177019,31.438564 40.4385045,32.5513735 42.1864401,32.1772239 C43.9336617,31.8023603 45.0471852,30.0815576 44.6723216,28.3343361 C44.298172,26.5860434 42.5770123,25.4728769 40.8290767,25.8477406 C39.0814981,26.2222472 37.9683316,27.9430498 38.3428383,29.6909854" id="Fill-11" fill="#FAF9F7"></path>
            <path d="M196.773779,159.293127 C201.30713,168.070649 196.315732,181.146964 196.315732,181.146964 C196.250755,181.348319 195.91552,182.632138 196.517087,182.786724 C196.804482,182.860626 197.027259,182.68212 197.185415,182.453988 C197.200053,182.723533 197.287521,182.985224 197.554567,183.055198 C197.816614,183.122317 198.021897,182.982368 198.178268,182.784582 C198.20433,183.025566 198.298225,183.245843 198.540637,183.30832 C198.828389,183.38365 199.049023,183.20443 199.209679,182.976655 C199.223603,183.2462 199.31,183.507891 199.578473,183.577508 C200.139698,183.72067 200.4096,183.385078 200.53741,182.631067 C200.53741,182.631067 205.133239,167.379115 199.389614,156.684434 L196.773779,159.293127" id="Fill-12" fill="#D1D1D6" opacity="0.349539621"></path>
            <path d="M195.186857,151.330667 L195.11474,156.756193 C195.757363,157.538766 196.302879,158.384886 196.76414,159.275277 L197.193984,153.405269 C196.587419,152.671251 195.92266,151.975075 195.186857,151.330667" id="Fill-13" fill="#E8E7E3" opacity="0.349539621"></path>
            <path d="M199.389614,156.684434 C198.769482,155.528783 198.040104,154.429183 197.193984,153.405269 L196.76414,159.275277 C196.766639,159.280989 196.770566,159.287058 196.773779,159.293127 L199.389614,156.684434" id="Fill-14" fill="#F8F7F5" opacity="0.349539621"></path>
            <path d="M201.970817,194.909815 C201.972246,197.685234 191.935896,199.943341 179.554686,199.952656 C167.173832,199.962619 157.136412,197.720578 157.135341,194.944802 C157.133556,192.169383 167.169548,189.911276 179.550402,189.901605 C191.931612,189.891997 201.969032,192.134039 201.970817,194.909815" id="Fill-15" fill="#9B9B9B" opacity="0.349539621"></path>
            <path d="M194.913028,176.645387 L193.404648,191.544253 C193.404648,191.544253 197.163995,188.747413 198.967981,191.963029 C201.508843,196.494238 191.083349,194.083686 191.083349,194.083686 L191.464996,179.743546 C191.464996,179.743546 179.721411,181.838498 165.182414,180.023087 L163.961429,192.80201 C163.961429,192.80201 168.225593,188.957337 169.693273,192.80201 C171.656487,197.944425 161.864692,194.553873 161.864692,194.553873 L161.262054,177.66216 C161.262054,177.66216 173.896744,174.458682 194.913028,176.645387" id="Fill-16" fill="#8F8F8F"></path>
            <path d="M196.829473,151.330667 C196.829473,151.330667 201.546329,110.162071 168.952828,123.304076 C168.952828,123.304076 158.630154,130.63748 158.157826,151.668401 C189.632806,158.402737 196.829473,151.330667 196.829473,151.330667" id="Fill-17" fill="#D1D1D6" opacity="0.349539621"></path>
            <path d="M202.265353,111.518006 C202.265353,111.518006 201.639866,138.020151 170.001375,130.099104 L167.830022,137.813441 C167.830022,137.813441 164.427688,134.585329 163.3363,138.306476 C162.24384,142.02905 166.904644,140.506747 166.904644,140.506747 C166.904644,140.506747 162.856831,149.252851 158.157826,151.668401 C158.313841,151.98043 148.966527,111.64189 165.017117,117.330535 C165.017117,117.330535 167.584397,109.97928 178.121993,109.781495 C189.04302,109.576569 193.149383,123.107719 202.265353,111.518006" id="Fill-18" fill="#B5B5B6"></path>
            <path d="M196.829473,151.330667 L194.913028,176.645387 C194.913028,176.645387 181.711758,179.951327 161.262054,177.66216 L158.157826,151.668401 C158.157826,151.668401 183.840984,155.591974 196.829473,151.330667" id="Fill-19" fill="#FFFFFF"></path>
            <polyline id="Fill-20" fill="#000000" opacity="0.349539621" points="186.752068 156.052878 187.502509 157.583749 186.316512 159.310264 189.035166 170.265208 185.074107 174.685029 181.354031 170.479773 184.097319 159.415583 182.846703 157.505563 183.581435 156.301359 186.752068 156.052878"></polyline>
            <path d="M158.038941,160.364523 C154.822254,169.705411 160.342389,182.113755 160.342389,182.113755 C160.436283,182.304043 160.952881,183.525741 160.380946,183.765297 C160.10676,183.880255 159.860778,183.736022 159.670847,183.533239 C159.695481,183.801355 159.647284,184.073399 159.393091,184.181217 C159.143182,184.285108 158.919335,184.176219 158.737258,184.003425 C158.74547,184.245122 158.684777,184.477538 158.454504,184.573931 C158.179604,184.689961 157.93505,184.544656 157.744048,184.342587 C157.769039,184.611061 157.720842,184.882034 157.465578,184.989852 C156.931487,185.212628 156.616244,184.920234 156.379901,184.192642 C156.379901,184.192642 150.936167,169.573674 155.072877,158.161039 L158.038941,160.364523" id="Fill-21" fill="#D1D1D6" opacity="0.349539621"></path>
            <path d="M158.458074,152.256401 L159.313477,157.614095 C158.78724,158.487706 158.36775,159.410228 158.038941,160.364523 L155.072877,158.161039 C155.840455,156.044309 156.936128,154.03861 158.458074,152.256401" id="Fill-22" fill="#F8F7F5" opacity="0.349539621"></path>
            <path d="M190.200099,142.361429 C186.80919,142.476388 186.103375,137.250431 186.096592,137.195808 L186.588913,137.133688 C186.594625,137.183313 187.242961,141.964788 190.192245,141.865181 C190.266861,141.862682 190.343261,141.85697 190.421447,141.847688 C191.147612,141.764147 191.72026,141.442835 192.122257,140.893392 C193.301828,139.280407 192.724181,136.221877 192.718469,136.191174 L193.205078,136.096208 C193.231496,136.230088 193.831278,139.396793 192.52354,141.184715 C192.036217,141.851258 191.348253,142.240045 190.478212,142.340366 C190.383961,142.351433 190.29078,142.358573 190.200099,142.361429" id="Fill-23" fill="#473226" opacity="0.349539621"></path>
            <path d="M177.143777,143.37606 C173.756081,143.18363 173.525807,137.91519 173.523665,137.86021 L174.019913,137.842716 C174.021698,137.892341 174.234478,142.713801 177.180549,142.880883 C177.255522,142.88481 177.331923,142.886238 177.410823,142.884453 C178.141985,142.866246 178.740696,142.597772 179.191247,142.086529 C180.511481,140.587432 180.213018,137.488916 180.209805,137.457856 L180.70284,137.40716 C180.71712,137.542825 181.028078,140.750587 179.563968,142.413553 C179.018452,143.033328 178.298357,143.35821 177.422961,143.379273 C177.327282,143.381773 177.234458,143.380701 177.143777,143.37606" id="Fill-24" fill="#473226" opacity="0.349539621"></path>
            <path d="M59.772186,159.293127 C64.305894,168.070649 59.3141384,181.146964 59.3141384,181.146964 C59.249162,181.348319 58.9139268,182.632138 59.5154937,182.786724 C59.8028892,182.860626 60.0253083,182.68212 60.183465,182.453988 C60.1984596,182.723533 60.2859277,182.985224 60.5522594,183.055198 C60.815021,183.122317 61.0206605,182.982368 61.1763181,182.784582 C61.2027371,183.025566 61.2962745,183.245843 61.5390433,183.30832 C61.8264388,183.38365 62.0474298,183.20443 62.2080857,182.976655 C62.2220092,183.2462 62.3080493,183.507891 62.5768801,183.577508 C63.1377475,183.72067 63.4080063,183.385078 63.535817,182.631067 C63.535817,182.631067 68.1316452,167.379115 62.3880202,156.684434 L59.772186,159.293127" id="Fill-38" fill="#D1D1D6" opacity="0.349539621"></path>
            <path d="M58.1849063,151.330667 L58.1127897,156.756193 C58.7561271,157.538766 59.3009289,158.384886 59.7625467,159.275277 L60.1923903,153.405269 C59.5858253,152.671251 58.9210671,151.975075 58.1849063,151.330667" id="Fill-39" fill="#E8E7E3" opacity="0.349539621"></path>
            <path d="M62.3880202,156.684434 C61.7678887,155.528783 61.0385111,154.429183 60.1923903,153.405269 L59.7625467,159.275277 C59.7654028,159.280989 59.7689729,159.287058 59.772186,159.293127 L62.3880202,156.684434" id="Fill-40" fill="#F8F7F5" opacity="0.349539621"></path>
            <path d="M64.9688671,194.909815 C64.9699382,197.685234 54.934303,199.943341 42.5530925,199.952656 C30.1722389,199.962619 20.1344617,197.720578 20.1337476,194.944802 C20.1319626,192.169383 30.1675978,189.911276 42.5484513,189.901605 C54.9296618,189.891997 64.9674391,192.134039 64.9688671,194.909815" id="Fill-41" fill="#9B9B9B" opacity="0.349539621"></path>
            <path d="M57.9114343,176.645387 L56.4030544,191.543896 C56.4030544,191.543896 60.1624012,188.747413 61.9660309,191.963029 C64.5076064,196.494238 54.081399,194.083686 54.081399,194.083686 L54.4634029,179.743546 C54.4634029,179.743546 42.7198175,181.838498 28.1804635,180.023087 L26.959836,192.80201 C26.959836,192.80201 31.2236422,188.957337 32.6916796,192.80201 C34.6552511,197.944425 24.8630987,194.553873 24.8630987,194.553873 L24.2608178,177.66216 C24.2608178,177.66216 36.8951506,174.458682 57.9114343,176.645387" id="Fill-42" fill="#8F8F8F"></path>
            <path d="M59.8278801,151.330667 C59.8278801,151.330667 64.5450927,110.162071 31.9512347,123.304076 C31.9512347,123.304076 21.628204,130.63748 21.1565899,151.668401 C52.6308552,158.402737 59.8278801,151.330667 59.8278801,151.330667" id="Fill-43" fill="#D1D1D6" opacity="0.349539621"></path>
            <path d="M65.2637599,111.518006 C65.2637599,111.518006 64.6382731,138.020151 33.0001388,130.099104 L30.8280718,137.813441 C30.8280718,137.813441 27.426095,134.585329 26.3347063,138.306476 C25.2422465,142.02905 29.9030511,140.506747 29.9030511,140.506747 C29.9030511,140.506747 25.8552378,149.252851 21.1565899,151.668401 C21.3122475,151.98043 11.9649334,111.64189 28.0151664,117.330535 C28.0151664,117.330535 30.5828039,109.97928 41.1203993,109.781495 C52.0414267,109.576569 56.1477902,123.107719 65.2637599,111.518006" id="Fill-44" fill="#B5B5B6"></path>
            <path d="M59.8278801,151.330667 L57.9114343,176.645387 C57.9114343,176.645387 44.7098079,179.951327 24.2608178,177.66216 L21.1565899,151.668401 C21.1565899,151.668401 46.8393904,155.591974 59.8278801,151.330667" id="Fill-45" fill="#FFFFFF"></path>
            <polyline id="Fill-46" fill="#000000" opacity="0.349539621" points="49.7504744 156.052878 50.5009157 157.583749 49.3145615 159.310264 52.0339295 170.265208 48.0725133 174.684672 44.3520809 170.479773 47.0960828 159.415583 45.8454663 157.505563 46.579842 156.301359 49.7504744 156.052878"></polyline>
            <path d="M21.0373475,160.364523 C17.8203035,169.705411 23.3407953,182.113755 23.3407953,182.113755 C23.4343327,182.304043 23.9512876,183.525741 23.3789957,183.765297 C23.1055238,183.880255 22.8595418,183.736022 22.6692539,183.533239 C22.6935308,183.801355 22.6456911,184.073399 22.3911408,184.181217 C22.1415887,184.285108 21.9177416,184.176219 21.7356649,184.003425 C21.7438762,184.245122 21.683184,184.477538 21.4525536,184.573931 C21.1780106,184.689961 20.9334567,184.544656 20.7424548,184.342587 C20.7670887,184.611061 20.719606,184.882034 20.4639847,184.989852 C19.9298932,185.212628 19.6139367,184.920234 19.3783082,184.192642 C19.3783082,184.192642 13.9345741,169.573674 18.0712836,158.161039 L21.0373475,160.364523" id="Fill-47" fill="#D1D1D6" opacity="0.349539621"></path>
            <path d="M21.4564808,152.256401 L22.3118839,157.614095 C21.7852897,158.487706 21.3661565,159.410228 21.0373475,160.364523 L18.0712836,158.161039 C18.8385045,156.044309 19.9345344,154.03861 21.4564808,152.256401" id="Fill-48" fill="#F8F7F5" opacity="0.349539621"></path>
            <path d="M53.1985058,142.361429 C49.8072394,142.476388 49.1017818,137.250431 49.0946415,137.195808 L49.5869624,137.133688 C49.5930316,137.183313 50.2413672,141.964788 53.1902945,141.865181 C53.2652673,141.862682 53.341668,141.85697 53.4198539,141.847688 C54.1460183,141.764147 54.7186672,141.442835 55.1206638,140.893392 C56.3005917,139.280407 55.7229447,136.221877 55.7168755,136.191174 L56.2034842,136.096208 C56.2295461,136.230088 56.829328,139.396793 55.5219464,141.184715 C55.0346236,141.851258 54.3463026,142.240045 53.476619,142.340366 C53.3820105,142.351433 53.2891871,142.358573 53.1985058,142.361429" id="Fill-49" fill="#473226" opacity="0.349539621"></path>
            <path d="M40.1418267,143.37606 C36.7541304,143.18363 36.5242141,137.91519 36.521715,137.86021 L37.017963,137.842716 C37.0201051,137.892341 37.2328849,142.713444 40.1789561,142.880883 C40.2535718,142.88481 40.3303296,142.886238 40.4092294,142.884453 C41.140035,142.866246 41.7391028,142.597772 42.1892962,142.086529 C43.5102443,140.587432 43.2110674,137.488916 43.2078543,137.457856 L43.7012462,137.40716 C43.7151697,137.542825 44.0264851,140.750587 42.5623748,142.413553 C42.0168589,143.033328 41.2967637,143.35821 40.4210109,143.379273 C40.3256884,143.381773 40.232865,143.380701 40.1418267,143.37606" id="Fill-50" fill="#473226" opacity="0.349539621"></path>
            <path d="M133.470021,194.909815 C133.471092,197.685234 123.4351,199.943341 111.053889,199.952656 C98.6730356,199.962619 88.6356154,197.720578 88.6345443,194.944802 C88.6327592,192.169383 98.6687514,189.911276 111.049605,189.901605 C123.430458,189.891997 133.468236,192.134039 133.470021,194.909815" id="Fill-51" fill="#956EDC"></path>
            <path d="M130.371148,128.880619 C137.422512,121.96135 136.41395,105.123903 136.41395,105.123903 C136.415378,104.911838 136.498205,103.588033 137.117623,103.629447 C137.413943,103.648726 137.569601,103.887924 137.648501,104.153899 C137.746679,103.902919 137.911619,103.681571 138.186519,103.698707 C138.457135,103.717272 138.608509,103.914343 138.694906,104.150686 C138.795227,103.930052 138.953026,103.74976 139.202935,103.766183 C139.499613,103.785105 139.653486,104.023946 139.734885,104.290992 C139.832349,104.038941 139.996218,103.81795 140.27326,103.835443 C140.85055,103.875429 141.002281,104.27814 140.888037,105.034293 C140.888037,105.034293 140.840197,123.814961 132.039827,132.17692 L130.371148,128.880619" id="Fill-52" fill="#F8D8B8"></path>
            <path d="M130.371148,128.880619 C130.366507,128.88526 128.857413,130.229414 128.00201,130.771717 L127.412581,135.505352 C128.312968,135.123348 130.917378,133.35899 132.039827,132.17692 L130.371148,128.880619" id="Fill-53" fill="#F8F7F5"></path>
            <path d="M126.055218,155.068236 L127.045929,169.966745 C127.045929,169.966745 130.448263,167.527275 132.25225,170.742891 C134.793468,175.273743 125.4383,171.792152 125.4383,171.792152 L122.607187,158.523407 C122.607187,158.523407 111.93464,160.975016 97.3956431,159.159962 L97.6027107,171.938885 C97.6027107,171.938885 100.85617,169.402664 103.334554,173.009924 C106.451635,177.547202 95.5059734,174.04776 95.5059734,174.04776 L92.4046015,156.442022 C92.4046015,156.442022 105.038934,152.881888 126.055218,155.068236" id="Fill-54" fill="#4A4A4A"></path>
            <path d="M128.328677,130.110529 C128.328677,130.110529 133.045889,88.9422895 100.452031,102.083938 C100.452031,102.083938 90.1293577,109.416985 89.6573865,130.44862 C121.132009,137.182599 128.328677,130.110529 128.328677,130.110529" id="Fill-55" fill="#F8D8B8"></path>
            <path d="M133.764914,90.2978678 C133.764914,90.2978678 133.13907,116.800013 101.500936,108.879323 L99.3292255,116.592946 C99.3292255,116.592946 95.9268917,113.365191 94.835503,117.086695 C93.7430432,120.808555 98.4042048,119.286252 98.4042048,119.286252 C98.4042048,119.286252 94.3560345,128.032356 89.6573865,130.44862 C89.8134012,130.760649 80.4657301,90.4217513 96.5163201,96.1103964 C96.5163201,96.1103964 99.0836005,88.7591418 109.621196,88.5613566 C120.542223,88.3564312 124.648587,101.887224 133.764914,90.2978678" id="Fill-56" fill="#473226"></path>
            <path d="M128.328677,130.110529 L126.055218,155.068236 C126.055218,155.068236 112.853949,158.731189 92.4046015,156.442022 L89.6573865,130.44862 C89.6573865,130.44862 115.340187,134.371836 128.328677,130.110529" id="Fill-57" fill="#F8F7F5"></path>
            <polyline id="Fill-58" fill="#956EDC" points="118.251271 134.832739 119.001712 136.363611 117.815715 138.090126 120.534726 149.045427 116.216297 153.464533 112.853235 149.259634 115.596879 138.195802 114.346263 136.285425 115.080639 135.08122 118.251271 134.832739"></polyline>
            <path d="M123.288367,117.893187 C123.317642,118.94816 123.785329,119.788926 124.333701,119.771075 C124.881359,119.753939 125.302992,118.884612 125.275145,117.829639 C125.24587,116.773951 124.778183,115.932472 124.230168,115.949608 C123.682153,115.967102 123.259806,116.837857 123.288367,117.893187" id="Fill-59" fill="#473226"></path>
            <path d="M104.72869,118.531883 C104.757608,119.5865 105.224938,120.427265 105.77331,120.410129 C106.322039,120.392635 106.743314,119.523308 106.71511,118.467978 C106.686192,117.412648 106.218148,116.570811 105.67049,116.589019 C105.122118,116.605798 104.699772,117.476196 104.72869,118.531883" id="Fill-60" fill="#473226"></path>
            <path d="M87.0522627,129.203359 C79.5421375,122.785336 79.0773065,106.792582 79.0773065,106.792582 C79.061241,106.580873 78.8873756,105.266352 78.2725993,105.349893 C77.9784205,105.38845 77.8398995,105.638716 77.7781363,105.909332 C77.6635351,105.666206 77.4843146,105.455925 77.2101286,105.491984 C76.9423688,105.529827 76.8045618,105.736538 76.7353013,105.977521 C76.6196291,105.764742 76.4496909,105.595875 76.2015669,105.630148 C75.9066742,105.668348 75.7692242,105.918614 75.7074609,106.189587 C75.5921457,105.94539 75.4136392,105.735824 75.1387392,105.772596 C74.5653764,105.851853 74.4422069,106.263489 74.6078609,107.010003 C74.6078609,107.010003 76.25976,124.869578 85.6138574,132.60712 L87.0522627,129.203359" id="Fill-61" fill="#F8D8B8"></path>
            <path d="M91.5263495,135.978751 L90.1404251,131.418267 C89.2439655,130.932372 87.8194837,129.859191 87.0522627,129.203359 L85.6138574,132.60712 C87.3485835,134.042313 89.3110839,135.214743 91.5263495,135.978751" id="Fill-62" fill="#F8F7F5"></path>
            <path d="M108.683323,122.261598 C108.683323,122.261598 114.596172,120.478675 122.053816,121.62076 C122.053816,121.62076 122.291944,127.9506 116.087415,128.466484 C109.159221,129.043417 108.683323,122.261598 108.683323,122.261598" id="Fill-63" fill="#473226"></path>
            <path d="M128.399008,188.554269 C128.201937,188.554269 128.041995,188.394327 128.041995,188.197256 L128.041995,178.800674 C128.041995,178.603246 128.201937,178.443661 128.399008,178.443661 C128.596079,178.443661 128.756021,178.603246 128.756021,178.800674 L128.756021,188.197256 C128.756021,188.394327 128.596079,188.554269 128.399008,188.554269" id="Fill-64" fill="#97B3A0"></path>
            <path d="M125.111633,183.487541 C124.914562,183.487541 124.75462,183.327956 124.75462,183.130528 L124.75462,177.743916 C124.75462,177.546845 124.914562,177.386903 125.111633,177.386903 C125.308704,177.386903 125.468646,177.546845 125.468646,177.743916 L125.468646,183.130528 C125.468646,183.327956 125.308704,183.487541 125.111633,183.487541" id="Fill-65" fill="#97B3A0"></path>
            <path d="M99.152147,188.369694 C98.9550759,188.369694 98.795134,188.210109 98.795134,188.012681 L98.795134,177.879581 C98.795134,177.682153 98.9550759,177.522568 99.152147,177.522568 C99.3492182,177.522568 99.50916,177.682153 99.50916,177.879581 L99.50916,188.012681 C99.50916,188.210109 99.3492182,188.369694 99.152147,188.369694" id="Fill-66" fill="#97B3A0"></path>
            <path d="M95.8647714,182.934528 C95.6677002,182.934528 95.5077584,182.774943 95.5077584,182.577515 L95.5077584,177.19126 C95.5077584,176.994189 95.6677002,176.834247 95.8647714,176.834247 C96.0618426,176.834247 96.2217844,176.994189 96.2217844,177.19126 L96.2217844,182.577515 C96.2217844,182.774943 96.0618426,182.934528 95.8647714,182.934528" id="Fill-67" fill="#97B3A0"></path>
        </g>
    </g>
</svg>