<?xml version="1.0" encoding="UTF-8"?>
<svg width="200px" height="163px" viewBox="0 0 200 163" version="1.1" xmlns="http://www.w3.org/2000/svg" xmlns:xlink="http://www.w3.org/1999/xlink">
    <title>shakinghands</title>
    <g id="Pop-Ups" stroke="none" stroke-width="1" fill="none" fill-rule="evenodd">
        <g id="shakinghands">
            <path d="M82.7952,119.012 C82.8496,118.934 82.904,118.8512 82.9588,118.7624 C82.9056,118.8396 82.8504,118.9244 82.7952,119.012" id="Fill-2" fill="#F8D8B8"></path>
            <path d="M89.3184,23.752 C91.3136,23.5444 91.6164,29.5376 91.6504,32.2796 C91.6932,31.62 91.812,30.89 92.1412,30.8916 C94.2876,30.9084 93.8952,32.164 93.9144,32.7944 C93.9256,32.2772 94.0872,31.2328 95.0264,31.2884 C95.8804,31.3388 96.3088,32.2184 96.4864,32.7704 C96.5152,32.368 96.6984,31.7272 97.4712,31.766 C100.6944,31.926 97.532,39.3424 97.532,39.3424 L89.8136,40.3616 C89.8136,40.3616 86.7352,24.0212 89.3184,23.752" id="Fill-3" fill="#F8D8B8"></path>
            <polyline id="Fill-4" fill="#F8F7F5" points="89.166 39.3196 89.0636 37.4172 98.676 37.1492 98.5924 38.9144 89.166 39.3196"></polyline>
            <path d="M66.114,70.0644 C66.114,70.0644 93.242,106.4768 88.3768,38.8612 L98.996,38.1648 C98.996,38.1648 102.3548,112.2236 66.6408,82.4756 L66.114,70.0644" id="Fill-5" fill="#161715"></path>
            <path d="M96.5844,40.636 C96.6552,41.0844 97.0776,41.3916 97.5292,41.3224 C97.98,41.2524 98.2888,40.8316 98.2184,40.3832 C98.148,39.934 97.7256,39.6268 97.2748,39.6968 C96.8236,39.7668 96.5148,40.1872 96.5844,40.636" id="Fill-6" fill="#41413F"></path>
            <path d="M96.5332,43.516 C96.6032,43.9648 97.026,44.272 97.4764,44.2024 C97.9276,44.132 98.2364,43.712 98.1668,43.2628 C98.0964,42.814 97.674,42.5072 97.2228,42.5764 C96.7716,42.6468 96.4628,43.0668 96.5332,43.516" id="Fill-7" fill="#41413F"></path>
            <path d="M96.468,46.3144 C96.538,46.7628 96.9612,47.0704 97.412,47.0008 C97.8632,46.9308 98.172,46.5104 98.1016,46.0612 C98.0316,45.6124 97.6088,45.3056 97.1576,45.3752 C96.7068,45.4452 96.398,45.8656 96.468,46.3144" id="Fill-8" fill="#41413F"></path>
            <path d="M68.0304,68.6528 C68.0304,68.6528 74.4888,4.0416 25.1084,21.0896 C25.1084,21.0896 5.19,52.0452 5.0264,69.2 C18.0944,75.7924 68.0304,68.6528 68.0304,68.6528" id="Fill-9" fill="#F8D8B8"></path>
            <path d="M39.372,162.1597 C19.2004,162.1752 2.8464,158.5404 2.8448,154.0412 C2.8432,149.5416 19.1936,145.8812 39.3644,145.8655 C59.536,145.85 75.8904,149.4848 75.892,153.984 C75.894,158.4828 59.5432,162.144 39.372,162.1597 Z" id="Fill-10" fill="#08CAA1"></path>
            <path d="M64.9088,117.1452 L60.6768,148.898 C60.6768,148.898 66.8016,144.3652 69.74,149.5772 C73.8808,156.9224 56.894,153.016 56.894,153.016 L58.2208,122.1676 C58.2208,122.1676 40.5148,126.2724 16.8268,123.3304 L13.7764,150.9376 C13.7764,150.9376 20.7232,144.7056 23.1148,150.9376 C26.314,159.2748 10.0036,153.778 10.0036,153.778 L10.084,119.346 C10.084,119.346 30.668,113.6 64.9088,117.1452" id="Fill-11" fill="#141413"></path>
            <path d="M26.5644,69.0312 L46.1556,93.7896 L64.6324,68.6528 L68.0304,68.6528 L64.9088,117.1452 C64.9088,117.1452 59.8052,118.896 48.8012,119.8784 C44.1988,120.3692 37.156,120.5276 37.156,120.5276 C29.9748,120.5544 20.2428,120.236 10.084,119.346 L5.0264,69.2 L26.5644,69.0312" id="Fill-12" fill="#161715"></path>
            <path d="M80.0164,2.44 C80.0164,2.44 71.7116,42.2096 27.3392,31.6556 L21.8672,44.1592 C21.8672,44.1592 16.3244,38.3916 14.5456,44.4244 C12.7664,50.4568 20.36,48.5252 20.36,48.5252 C20.36,48.5252 12.6816,65.2828 5.0264,69.2 C5.0264,69.2 -12.11,5.9336 16.914,13.534 C16.914,13.534 20.9776,0.38 38.1456,0.0592 C55.9388,-0.2736 63.7512,19.5492 80.0164,2.44" id="Fill-13" fill="#141413"></path>
            <path d="M58.0328,45.8276 C57.97,47.4908 58.7036,48.868 59.6724,48.904 C60.6408,48.9404 61.4768,47.6224 61.5392,45.96 C61.6016,44.2968 60.8684,42.9192 59.9,42.8832 C58.9312,42.8468 58.0956,44.1648 58.0328,45.8276" id="Fill-14" fill="#141413"></path>
            <path d="M32.6848,45.9004 C32.622,47.5628 33.3556,48.9404 34.3248,48.9764 C35.2928,49.012 36.1292,47.6944 36.1916,46.032 C36.2548,44.3696 35.5204,42.992 34.552,42.956 C33.584,42.9192 32.748,44.238 32.6848,45.9004" id="Fill-15" fill="#141413"></path>
            <polyline id="Fill-16" fill="#F8F7F5" points="64.6324 68.6528 46.1556 93.7896 26.5644 69.0312 64.6324 68.6528"></polyline>
            <polyline id="Fill-17" fill="#41413F" points="64.6324 68.6528 64.9608 79.3496 58.8984 80.6224 59.8048 88.7604 46.1556 93.7896 64.6324 68.6528"></polyline>
            <polyline id="Fill-18" fill="#41413F" points="46.1556 93.7896 32.8664 87.4724 33.2944 81.5476 26.8908 79.2884 26.5644 69.0312 46.1556 93.7896"></polyline>
            <polyline id="Fill-19" fill="#141413" points="51.1348 73.3932 49.412 71.026 43.6368 71.1824 42.366 73.5848 44.4608 76.8984 41.7284 88.2204 46.1556 93.7896 51.0676 87.1132 49.046 76.982 51.1348 73.3932"></polyline>
            <path d="M39.5184,53.3252 C39.5804,55.9804 41.3772,61.7604 48.7968,61.9796 C56.4112,62.204 56.6752,53.3476 56.6752,53.3476 C56.6752,53.3476 46.7628,50.9892 39.5184,53.3252" id="Fill-20" fill="#141413"></path>
            <path d="M42.478,98.0984 C42.6856,99.0344 43.6152,99.6252 44.556,99.4196 C45.496,99.2136 46.09,98.288 45.8824,97.3524 C45.6756,96.4164 44.7456,95.8256 43.8068,96.0316 C42.8656,96.2388 42.2712,97.1632 42.478,98.0984" id="Fill-21" fill="#41413F"></path>
            <path d="M42.2508,106.0276 C42.458,106.9632 43.3884,107.5552 44.3276,107.3488 C45.268,107.142 45.8624,106.2172 45.6548,105.2828 C45.4492,104.3464 44.5176,103.7556 43.5784,103.9612 C42.638,104.1664 42.0424,105.092 42.2508,106.0276" id="Fill-22" fill="#41413F"></path>
            <path d="M97.2172,116.622 C98.23,117.9052 97.6684,120.1668 95.472,118.3364 C95.9108,118.9756 95.8952,119.6344 95.3232,120.0904 C94.5936,120.6708 93.4852,120.0556 93.0104,119.488 C93.376,119.9728 94.2504,121.1632 93.344,121.7872 C92.5204,122.3532 91.6748,122.1896 91.1112,121.8084 C91.3772,122.2004 91.96,123.2716 91.2196,123.7896 C88.7624,125.0264 85.1292,118.2988 78.4248,117.518 L82.1304,108.8332 C89.6696,109.0488 96.5632,115.628 97.2172,116.622" id="Fill-23" fill="#F8D8B8"></path>
            <polyline id="Fill-24" fill="#F8F7F5" points="81.4764 107.644 83.5516 108.4864 79.032 118.7468 77.196 117.776 81.4764 107.644"></polyline>
            <path d="M13.6504,75.1384 C13.6504,75.1384 26.884,94.6508 82.3588,107.0408 L77.7908,118.5768 C77.7908,118.5768 32.3084,106.6808 10.0784,79.0044 L13.6504,75.1384" id="Fill-25" fill="#161715"></path>
            <path d="M76.802,115.36 C76.3864,115.308 76.0072,115.602 75.9552,116.0152 C75.9028,116.43 76.1984,116.8076 76.6144,116.8588 C77.0308,116.91 77.4096,116.6168 77.4616,116.2024 C77.5132,115.7888 77.218,115.4112 76.802,115.36" id="Fill-26" fill="#41413F"></path>
            <path d="M74.0524,114.6484 C73.6364,114.5972 73.2572,114.8916 73.2052,115.3044 C73.1536,115.7192 73.4488,116.096 73.8648,116.1476 C74.2808,116.1996 74.66,115.9052 74.712,115.4912 C74.7636,115.0772 74.4684,114.7 74.0524,114.6484" id="Fill-27" fill="#41413F"></path>
            <path d="M71.328,113.944 C70.9116,113.892 70.5324,114.186 70.4804,114.6 C70.4284,115.0144 70.724,115.3916 71.14,115.4428 C71.556,115.4952 71.9356,115.2016 71.9872,114.7876 C72.0392,114.3736 71.7436,113.9956 71.328,113.944" id="Fill-28" fill="#41413F"></path>
            <path d="M13.8368,75.186 C13.6796,75.014 13.872,75.3176 13.7232,75.0828 C13.7628,75.092 13.8048,75.1144 13.8368,75.186" id="Fill-29" fill="#41413F"></path>
            <path d="M69.0136,104.014 C68.2384,103.9936 67.3052,103.6008 66.4724,103.5068 C66.3752,103.4912 66.5184,103.426 66.2996,103.3956 C65.486,103.3244 64.2788,102.9148 63.3564,102.572 L63.4208,102.5628 C63.2448,102.4972 63.0024,102.5184 62.814,102.456 C62.8168,102.44 62.8816,102.4496 62.8436,102.4156 C62.782,102.4516 62.4916,102.346 62.4,102.3604 C62.3304,102.32 62.3484,102.2832 62.2576,102.234 L62.1332,102.258 C61.7936,102.3 61.4012,102.0336 60.9684,101.9804 C60.9924,101.9732 61.0364,101.9756 61.0072,101.954 C60.322,101.838 59.4944,101.5864 58.7472,101.3912 C58.782,101.3808 58.82,101.3552 58.784,101.3188 C58.7296,101.3648 58.498,101.3076 58.2972,101.2556 C58.2268,101.1684 57.9416,101.2016 57.7208,101.0956 L57.7448,101.0892 C57.554,101.0964 57.5028,100.9728 57.3404,101.0032 L57.2464,100.922 C57.1444,100.9812 57.0128,100.8004 56.858,100.7968 L56.8572,100.8156 C56.7172,100.794 56.6612,100.7296 56.5332,100.7044 L56.5248,100.6916 C56.228,100.6208 56.0748,100.5212 56.0604,100.5888 C55.976,100.504 56.3488,100.654 56.2148,100.5276 C55.2388,100.2976 54.276,99.9272 53.3228,99.6076 C53.2244,99.544 53.1584,99.5128 53.1428,99.48 C53.0432,99.46 52.7808,99.3684 52.6828,99.372 C52.7152,99.3812 52.6332,99.3176 52.584,99.2972 C52.42,99.2136 52.3704,99.3008 52.1924,99.2028 C52.2736,99.2132 52.3068,99.2024 52.29,99.1688 C52.1116,99.1592 51.8996,99.0716 51.7036,99.0168 C51.7372,99.0168 51.7852,99.028 51.7856,99.0052 C51.5572,98.9844 51.4116,98.8524 51.2168,98.8208 L51.298,98.8084 C51.022,98.6552 51.1828,98.854 50.9396,98.7336 C51.0048,98.7436 50.9888,98.7216 51.0052,98.7112 C50.7436,98.69 50.37,98.526 50.1256,98.4612 L50.1416,98.4492 C49.882,98.362 49.6208,98.2428 49.328,98.164 C49.2328,98.1076 49.396,98.0884 49.122,97.9944 C49.1028,98.072 48.6528,97.8416 48.7788,97.9888 C48.5536,97.8844 48.2,97.7116 48.0368,97.6752 C48.1516,97.6888 47.9612,97.5416 48.1548,97.6108 L48.0284,97.5092 C48.0616,97.4876 48.1724,97.5784 48.142,97.5224 C48.0448,97.4876 47.7544,97.4044 47.6736,97.3584 C47.478,97.3324 47.2808,97.3516 46.9896,97.2448 C47.1364,97.2712 46.946,97.1344 47.0428,97.1584 L46.584,97.138 C46.4872,97.1028 46.5868,97.0732 46.4416,97.036 C46.44,97.0576 46.3756,97.0436 46.3276,97.042 C46.2952,97.018 45.9256,96.8916 45.9152,96.8024 C45.8844,96.7564 46.0752,96.8532 45.9816,96.7828 C45.8064,96.7084 45.7884,96.7304 45.6132,96.6568 L45.6136,96.6448 C45.5028,96.5848 45.2604,96.5304 45.3688,96.624 C45.448,96.66 45.3568,96.5672 45.4668,96.6392 C45.3676,96.646 45.1596,96.5704 44.984,96.4968 C45.0484,96.5104 45.0496,96.4888 45.082,96.4784 C44.8232,96.434 44.566,96.3452 44.2928,96.2568 C44.2736,96.2888 44.418,96.2368 44.4488,96.2712 C44.1336,96.0776 43.7216,96.0456 43.476,95.8468 C43.5248,95.862 43.4792,95.9064 43.4804,95.8952 C43.3216,95.818 43.3512,95.772 43.2388,95.7432 C43.2408,95.7092 43.1032,95.6916 42.9912,95.652 C42.926,95.6468 42.9696,95.6252 43.0648,95.6644 C42.9036,95.6204 42.2832,95.3908 41.9556,95.1912 C41.9536,95.2128 41.7108,95.1632 41.6316,95.1248 L41.6836,95.0952 C41.6232,95.0352 41.4148,94.9768 41.4192,94.9336 C41.224,94.9092 42.096,95.1864 41.8464,95.1224 C41.8036,95.0584 41.4928,95.0468 41.5704,95.0088 C41.4096,94.938 41.2312,94.9168 41.0976,94.8056 C41.1384,94.8328 41.2564,94.804 41.1256,94.748 C40.896,94.6496 41.0512,94.7388 40.8616,94.666 L40.7384,94.6284 C40.7104,94.6676 40.54,94.5252 40.6008,94.6132 C40.5904,94.5644 40.2632,94.4764 40.3204,94.4164 L40.3792,94.376 C40.2796,94.3332 40.1912,94.358 40.1024,94.346 C40.0924,94.3336 40.072,94.3104 40.0816,94.3036 C40.0244,94.3808 39.8528,94.1836 39.7048,94.1932 C39.5152,94.0656 39.1876,93.9392 39.1172,93.84 C38.9476,93.79 38.7896,93.7504 38.62,93.6456 C38.6592,93.6552 38.7092,93.676 38.7284,93.6628 C38.6292,93.5832 38.5892,93.594 38.4812,93.5552 C38.51,93.554 38.284,93.3916 38.1756,93.2972 C38.0092,93.244 38.0388,93.3172 38.0092,93.3372 C37.9112,93.1808 37.546,93.1664 37.4088,93 C37.4684,93.0164 37.6548,93.0752 37.5372,92.9888 C37.44,92.8328 37.2216,92.9036 37.016,92.7476 L37.0348,92.8444 C36.9564,92.7496 36.6796,92.712 36.74,92.6548 C36.6504,92.6404 36.4836,92.4932 36.4736,92.5744 C36.1284,92.3308 35.5564,92.1248 35.3936,91.8852 C35.3348,91.8676 35.2092,91.7844 35.2176,91.8332 C35.2848,91.918 35.3544,91.8736 35.3736,91.9164 C35.3252,91.892 35.3048,91.9048 35.2944,91.9116 C35.1888,91.834 35.1012,91.7808 35.2396,91.784 C35.0076,91.6052 34.9148,91.7544 34.6048,91.5516 C34.634,91.5324 34.6156,91.508 34.5184,91.4608 L34.312,91.4096 C34.1084,91.2844 34.228,91.2828 34.2488,91.2344 C34.1324,91.1808 33.9964,91.1048 33.926,91.11 L33.8252,90.9748 C33.8992,91.0736 33.7184,90.9508 33.66,90.9316 L33.7184,90.9508 C33.7092,90.92 33.5744,90.858 33.506,90.826 C33.5056,90.864 33.6292,90.9504 33.696,90.9992 C33.628,90.9872 33.5424,90.9324 33.454,90.9128 C33.5048,90.882 33.292,90.7768 33.2072,90.722 C33.1116,90.6548 33.0696,90.6964 33.0416,90.6788 C33.0524,90.654 32.8792,90.5804 32.9764,90.5928 C33.0156,90.6056 33.042,90.66 33.1108,90.6724 C33.0544,90.6168 33.086,90.5804 32.9304,90.5312 C32.8136,90.4936 32.9056,90.6352 32.7252,90.4936 C32.7836,90.5124 32.8032,90.4992 32.8528,90.5064 L32.682,90.3772 L32.65,90.414 C32.6312,90.3888 32.6504,90.3948 32.642,90.3832 C32.562,90.3944 32.3528,90.2348 32.2824,90.2584 C32.1864,90.2092 32.1024,90.1176 32.0164,90.0616 L32.0356,90.068 C31.9408,89.9824 31.7876,89.9148 31.6816,89.8864 L31.6916,89.88 C31.6348,89.842 31.4928,89.764 31.4048,89.7436 C31.2756,89.6236 31.448,89.56 31.2532,89.512 C31.1028,89.4228 30.9732,89.4444 31.0172,89.5064 C30.7644,89.316 30.4172,89.196 30.206,88.9816 C30.1568,88.9748 30.1752,88.9992 30.0888,88.9604 C29.7004,88.7084 29.2316,88.4856 28.9688,88.2112 C29.0924,88.2664 29.002,88.1756 29.014,88.152 C28.898,88.128 28.9256,88.0436 28.8528,88.0832 C28.8388,88.1252 28.818,88.1372 28.9188,88.2212 C28.6736,88.092 28.3184,87.866 28.2112,87.7504 C28.2648,87.8084 28.2076,87.7876 28.1496,87.766 C28.2044,87.7184 28.0364,87.6024 27.8952,87.536 L27.8544,87.5588 L27.7944,87.4676 C27.7384,87.4448 27.692,87.504 27.5868,87.3856 L27.574,87.3236 C27.4228,87.262 27.2032,87.1864 27.0788,87.0596 L26.9952,86.9304 C26.9304,86.8952 26.806,86.856 26.9044,86.9432 C26.6792,86.7476 26.5236,86.6388 26.4756,86.5428 C25.98,86.3664 25.3756,85.9376 24.8948,85.592 L24.9276,85.5772 C24.8144,85.4624 24.828,85.5736 24.75,85.492 C24.8088,85.4976 24.6888,85.3704 24.812,85.4124 C24.6448,85.2564 24.5412,85.2872 24.4136,85.2104 C24.3712,85.2304 24.5252,85.26 24.4712,85.2852 C24.4424,85.282 24.2364,85.0728 24.1712,85.1016 C24.1396,85.048 24.2024,85.038 24.2424,85.036 L24.1124,84.978 C24.0184,84.8192 24.5008,85.1028 24.41,84.9252 L24.3016,84.8576 C24.2416,84.7324 24.6168,84.998 24.3716,84.7908 C24.2416,84.7324 24.092,84.7344 24.1756,84.8296 C23.9324,84.672 23.9796,84.8692 23.7312,84.6796 C23.684,84.6004 23.938,84.8208 23.92,84.7448 C23.8312,84.6172 23.6656,84.5924 23.5708,84.5008 C23.6736,84.6052 23.5372,84.5832 23.4544,84.5368 C23.344,84.4188 23.5732,84.55 23.3956,84.412 C23.344,84.4188 23.1608,84.3168 23.2904,84.4432 C23.176,84.4592 23.1144,84.2884 22.9792,84.2628 C22.9556,84.1728 23.2432,84.298 23.064,84.1252 C23.062,84.1936 22.7768,83.9992 22.8312,84.144 C22.7636,84.072 22.782,84.032 22.8584,84.0476 C22.7696,83.9364 22.5308,83.9224 22.5616,83.8084 L22.4896,83.824 C22.466,83.7824 22.4256,83.734 22.388,83.6664 C22.2916,83.5916 22.0296,83.4872 22.0908,83.4272 C22.0544,83.4096 21.8356,83.2372 21.8844,83.3484 C22,83.4828 22.0692,83.4364 22.0964,83.5584 C22.0392,83.4316 21.8932,83.4116 21.8,83.368 L21.8076,83.3324 C21.7528,83.306 21.6476,83.2172 21.5968,83.2208 C21.6444,83.2352 21.64,83.2032 21.6076,83.166 L21.5276,83.166 C21.3232,83.034 21.5376,83.0616 21.3448,82.9252 L21.5088,83.0076 C21.4728,82.9892 21.44,82.9028 21.3424,82.8432 C21.2792,82.852 21.1808,82.8428 21.1292,82.8472 C21.0128,82.7792 21.1152,82.77 20.9836,82.7244 L21.152,82.7892 C21.1816,82.7932 21.1092,82.658 20.9704,82.5476 C20.8716,82.4892 20.6932,82.4292 20.8168,82.5616 C20.7468,82.5064 20.6668,82.4064 20.7432,82.4252 C20.576,82.31 20.7328,82.4792 20.5796,82.392 C20.5432,82.324 20.3968,82.1524 20.324,82.0308 L20.5116,82.0888 L20.42,82.0112 C20.5784,82.0644 20.3892,81.9248 20.498,81.9312 C20.4412,81.8716 20.3508,81.8236 20.2792,81.786 C20.3972,82.02 19.9812,81.7208 19.9744,81.8372 C19.704,81.6436 19.9644,81.5292 19.6048,81.4208 C19.632,81.4752 19.4608,81.4252 19.638,81.5388 C19.4876,81.3984 19.4696,81.5204 19.3088,81.3344 C19.4716,81.4208 19.2236,81.1388 19.4588,81.2628 C19.4256,81.2752 19.5544,81.374 19.5904,81.3924 C19.5496,81.3108 19.6656,81.3324 19.5048,81.1972 C19.4,81.1224 19.266,81.0084 19.2536,81.0616 C19.2212,81.1076 19.4056,81.1856 19.3072,81.1732 C19.1016,81.0196 19.1244,80.9292 18.9816,80.932 C19.1084,81.0328 19.102,81.1012 19.0752,81.1264 L18.9188,81.02 L18.97,81.0176 C18.76,80.7988 18.86,81.0072 18.646,80.8076 L18.59,80.664 C18.6828,80.664 18.892,80.9644 18.9184,80.8552 C18.778,80.728 18.6976,80.7244 18.5796,80.5872 L18.6936,80.66 C18.6444,80.6128 18.6816,80.47 18.4264,80.3496 C18.3012,80.2796 18.3752,80.3516 18.3476,80.3768 C18.11,80.1852 18.0208,80.1484 17.8704,80.0212 C17.9492,79.9944 17.6188,79.7816 17.8292,79.8732 C17.8744,79.9708 18.2016,80.2676 18.3304,80.2856 C18.3044,80.1492 18.5024,80.452 18.6092,80.43 C18.4272,80.268 18.4928,80.2128 18.5,80.1456 C18.452,80.098 18.3864,80.0736 18.3508,80.0516 C18.2952,80.0712 18.3608,80.1304 18.3292,80.1736 C18.1368,79.9808 17.924,79.8252 17.7784,79.7604 C17.7288,79.6804 17.7852,79.6624 17.8684,79.7308 C17.6188,79.524 17.3656,79.288 17.1552,79.062 C17.2408,79.2612 16.8932,78.8412 16.9424,78.9852 C17.0488,79.1128 17.11,79.2548 17.0176,79.2192 C16.9468,79.1444 17.046,79.1944 17.0268,79.152 C16.8992,79.0948 16.9308,78.9576 16.786,78.9216 C17.02,79.1056 16.8996,78.8856 16.9848,78.8752 C16.8048,78.7564 17.0248,78.8472 16.8716,78.7024 C16.6912,78.584 16.4824,78.424 16.3056,78.2668 C16.1392,78.0136 15.77,77.74 15.5856,77.5492 C15.5124,77.426 15.6324,77.4412 15.5368,77.3244 C15.4128,77.1992 15.5696,77.4744 15.412,77.2624 L15.4408,77.2712 C15.3712,77.2276 15.1456,76.8912 15.0144,76.9076 L15.1296,76.9108 L15.0232,76.8264 C15.0412,76.8076 15.02,76.7496 15.0868,76.7956 C15.0184,76.6392 14.8484,76.556 14.7292,76.4284 L14.7688,76.5436 C14.54,76.3468 14.4388,76.168 14.2348,75.96 L14.2764,75.936 L14.1412,75.8244 C14.2044,75.826 14.1224,75.6876 14.0332,75.644 L14.4152,75.9052 C14.4756,76.0172 14.2828,75.8412 14.2992,75.9308 C14.3108,76.0084 14.5012,76.198 14.564,76.2004 C14.4992,76.1204 14.4884,76.124 14.422,76.076 C14.4488,76.0076 14.5512,76.1248 14.6356,76.1516 C14.5972,76.114 14.5612,76.0448 14.538,76.0496 C14.6324,76.1068 14.7076,76.1816 14.826,76.31 C14.7276,76.2404 14.8392,76.3856 14.7952,76.3652 C14.8468,76.3372 14.974,76.4476 15.1104,76.6164 C15.1684,76.774 15.4184,76.8856 15.5812,77.076 C15.468,77.0436 15.342,76.9828 15.2212,76.888 C15.3076,77.0228 15.342,77.0144 15.4316,77.148 C15.5172,77.1728 15.6036,77.1652 15.766,77.294 L15.7428,77.3316 C15.8892,77.45 15.9344,77.4052 16.092,77.5832 C16.3672,77.8828 16.662,78.18 16.8832,78.3972 L16.8616,78.436 C17.0516,78.4884 17.3028,78.8076 17.4996,78.938 C17.7596,79.2388 18.1612,79.4872 18.2596,79.6792 C18.8,80.124 19.2816,80.4996 19.8212,80.9812 L19.6868,80.95 C19.816,80.9984 19.7276,81.0324 19.8312,81.1076 C19.752,80.9744 20.0088,81.1708 20.102,81.1988 C20.318,81.4416 20.6668,81.6708 20.9172,81.8148 L20.8988,81.8552 C21.1748,81.9732 21.3976,82.244 21.6696,82.4792 C21.6904,82.5192 21.7156,82.5916 21.8024,82.6556 C21.9972,82.724 22.0748,82.79 22.3288,82.9292 C22.494,83.0564 22.7524,83.276 22.9036,83.428 C23.5812,83.8356 24.1992,84.3472 24.8884,84.7872 L24.9064,84.8632 C25.6196,85.2268 26.3508,85.8776 26.9468,86.204 L26.8436,86.2396 C27.0048,86.3788 27.258,86.4892 27.2476,86.4084 C27.4092,86.548 27.7116,86.6672 27.7836,86.8016 C27.9548,86.936 28.0268,86.9164 28.1832,87.0072 C28.528,87.2736 28.6704,87.35 29.0244,87.5584 L28.9416,87.4984 C28.8928,87.4908 28.8696,87.5184 28.9528,87.5784 C29.0948,87.6412 29.4144,87.9004 29.342,87.7316 C29.6792,88.016 30.2256,88.2416 30.5496,88.5264 C30.5336,88.4832 30.6284,88.5352 30.6768,88.5416 C31.0056,88.7392 31.3208,88.998 31.608,89.1148 C31.6524,89.1584 31.4996,89.1064 31.6316,89.1896 C31.7168,89.2276 31.6524,89.1584 31.758,89.2048 C32.3136,89.4856 32.8192,89.8836 33.3144,90.158 C34.208,90.62 35.1212,91.1348 35.9708,91.5892 L35.9508,91.602 C36.2708,91.6892 36.5784,92.0344 36.8652,92.044 C36.9236,92.096 37.1196,92.1852 37.0512,92.1948 C37.3056,92.2624 37.666,92.5708 38.0292,92.6768 L37.9412,92.6444 C38.2548,92.8564 38.5756,92.9564 38.9124,93.1684 C38.872,93.1584 38.8032,93.1328 38.7832,93.146 C38.9032,93.248 39.1492,93.2252 39.1792,93.3516 C39.2588,93.3896 39.2584,93.334 39.2084,93.3128 C39.9736,93.7228 40.8292,94.082 41.6592,94.4368 C42.222,94.7596 41.6232,94.6068 42.1192,94.7504 C42.15,94.7856 42.1632,94.728 42.1604,94.75 C42.3524,94.8064 42.3936,94.9792 42.5404,94.9884 C42.5148,94.9092 42.6384,94.9944 42.6576,94.962 C43.0004,95.1632 43.05,95.2468 43.3536,95.3336 L43.3188,95.354 C43.6884,95.4248 44.0564,95.6412 44.3844,95.6632 C46.2424,96.4512 48.0572,97.1236 49.8948,97.8216 C51.7048,98.5324 53.5128,99.1292 55.3668,99.8116 C55.776,100.0448 55.8112,100.0504 56.3068,100.1724 C56.2828,100.1788 56.2512,100.1724 56.2796,100.1944 C56.3256,100.1356 56.6232,100.2972 56.69,100.248 C57.382,100.4824 58.0288,100.668 58.7448,100.8952 C58.6296,100.8664 58.556,100.9032 58.6916,100.9416 L58.8456,100.9432 L58.8628,100.9696 C58.958,100.9888 59.0684,100.9884 58.98,100.936 C60.8084,101.4084 62.5468,102.0804 64.3444,102.5228 C64.7612,102.6636 65.3724,102.7988 65.8372,102.908 C67.1856,103.3416 68.412,103.7044 69.8248,103.9808 C69.8248,103.9808 69.6016,104.1124 69.0136,104.014" id="Fill-30" fill="#41413F"></path>
            <path d="M14.0212,75.3976 C14.0264,75.4584 14.1176,75.5964 13.9976,75.5256 C14.0124,75.4924 13.9864,75.4048 14.0212,75.3976" id="Fill-31" fill="#41413F"></path>
            <path d="M16.7952,78.8228 C16.8068,78.8188 16.8308,78.876 16.8372,78.8904 C16.7956,78.8548 16.7384,78.8408 16.7196,78.7972 C16.7612,78.8336 16.7668,78.816 16.7952,78.8228" id="Fill-32" fill="#41413F"></path>
            <path d="M17.6044,79.6088 C17.5708,79.62 17.3748,79.4756 17.2676,79.3824 L17.6044,79.6088" id="Fill-33" fill="#41413F"></path>
            <path d="M18.298,80.41 C18.3488,80.4896 18.3204,80.4836 18.2284,80.4024 C18.2328,80.3844 18.2692,80.4048 18.298,80.41" id="Fill-34" fill="#41413F"></path>
            <path d="M18.4012,80.4064 C18.4676,80.4636 18.4884,80.506 18.508,80.5472 C18.524,80.5252 18.3448,80.4264 18.4012,80.4064" id="Fill-35" fill="#41413F"></path>
            <path d="M20.0768,81.9616 C20.1208,81.9952 20.2284,82.052 20.2456,82.1116 C20.2172,82.0564 20.0152,81.97 20.0768,81.9616" id="Fill-36" fill="#41413F"></path>
            <path d="M20.9296,82.5972 L20.9988,82.6516 C21.0392,82.7028 20.9732,82.6784 20.9296,82.6472 L20.9296,82.5972" id="Fill-37" fill="#41413F"></path>
            <polyline id="Fill-38" fill="#41413F" points="37.2124 92.9108 37.1036 92.872 37.1328 92.8524 37.2124 92.9108"></polyline>
            <path d="M44.86,96.5104 C44.9728,96.5376 44.9216,96.5688 44.9372,96.5804 C44.8408,96.5424 44.9876,96.5604 44.86,96.5104" id="Fill-39" fill="#41413F"></path>
            <polyline id="Fill-40" fill="#41413F" points="49.1344 98.0944 49.102 98.0828 49.1364 98.0272 49.1344 98.0944"></polyline>
            <path d="M10.2688,79.0472 C10.1008,78.8768 10.312,79.18 10.148,78.9456 C10.188,78.9536 10.2324,78.9752 10.2688,79.0472" id="Fill-41" fill="#41413F"></path>
            <path d="M63.7908,114.0256 C63.0064,113.918 62.0988,113.4248 61.2648,113.2312 C61.1692,113.202 61.32,113.1576 61.1032,113.0968 C60.2916,112.9164 59.1052,112.382 58.2104,111.9252 L58.2756,111.9252 C58.1068,111.8348 57.8596,111.822 57.6772,111.7332 C57.6824,111.7172 57.7464,111.7364 57.7124,111.6968 C57.6456,111.7244 57.3656,111.5776 57.272,111.5792 C57.206,111.5312 57.2284,111.4968 57.1416,111.4368 L57.0128,111.4448 C56.6628,111.4464 56.2948,111.1356 55.8616,111.0308 C55.8868,111.0272 55.9308,111.0344 55.904,111.0088 C55.216,110.8232 54.4228,110.4336 53.688,110.1436 C53.7248,110.1384 53.7664,110.1172 53.7336,110.0768 C53.6736,110.116 53.4448,110.0308 53.2468,109.9556 C53.1856,109.86 52.892,109.8588 52.68,109.7268 L52.7052,109.7232 C52.5104,109.7068 52.472,109.5792 52.3044,109.5876 L52.2196,109.4928 C52.11,109.538 51.9996,109.3384 51.844,109.3128 L51.8408,109.3312 C51.7024,109.2896 51.654,109.2176 51.5284,109.174 L51.5212,109.1588 C51.2316,109.0468 51.0892,108.9256 51.0668,108.9908 C50.992,108.8936 51.3492,109.0972 51.2292,108.952 C50.2768,108.5792 49.3316,108.1156 48.418,107.6452 C48.3264,107.5684 48.2644,107.5268 48.2524,107.4928 C48.1548,107.4588 47.9016,107.3292 47.8028,107.3188 C47.834,107.3336 47.7596,107.258 47.7124,107.2304 C47.5576,107.1236 47.496,107.2044 47.3268,107.0856 C47.4084,107.1064 47.4432,107.0988 47.4304,107.0644 C47.25,107.0328 47.0448,106.92 46.8524,106.8416 C46.886,106.846 46.934,106.8624 46.9368,106.8396 C46.7072,106.7912 46.5784,106.6356 46.3852,106.5772 L46.4688,106.5772 C46.2096,106.3848 46.3472,106.606 46.1168,106.4504 C46.1816,106.4712 46.1676,106.446 46.186,106.438 C45.9252,106.3792 45.5684,106.1624 45.3308,106.0632 L45.3488,106.0544 C45.0972,105.9304 44.85,105.7736 44.5632,105.6556 C44.4728,105.588 44.642,105.5888 44.374,105.4624 C44.3436,105.5396 43.9168,105.2492 44.026,105.412 C43.812,105.276 43.4772,105.0544 43.3172,104.9952 C43.4308,105.0252 43.2572,104.8512 43.444,104.9484 L43.3288,104.828 C43.3656,104.8116 43.4664,104.918 43.4416,104.858 C43.3484,104.8088 43.066,104.686 42.99,104.6284 C42.7964,104.5752 42.5948,104.5664 42.3144,104.4196 C42.4592,104.466 42.284,104.3024 42.3784,104.3404 L41.9188,104.2556 C41.8252,104.2076 41.9304,104.1904 41.7872,104.134 C41.7832,104.156 41.7192,104.1344 41.6704,104.1268 C41.6392,104.1012 41.2824,103.924 41.2824,103.8332 C41.2572,103.7832 41.438,103.9064 41.3512,103.8228 C41.1844,103.7252 41.1632,103.7436 40.9952,103.6468 L40.9972,103.6348 C40.8928,103.56 40.6548,103.4708 40.7528,103.5796 C40.8288,103.6268 40.7476,103.5224 40.85,103.6084 C40.7492,103.602 40.5484,103.498 40.38,103.3996 C40.4436,103.4228 40.4476,103.4012 40.482,103.3952 C40.2256,103.3156 39.9772,103.1912 39.7124,103.0648 C39.6896,103.0936 39.8412,103.0628 39.8676,103.1 C39.5732,102.8656 39.1632,102.7736 38.938,102.5456 C38.9844,102.5672 38.9332,102.6052 38.936,102.5936 C38.7852,102.4952 38.8204,102.4544 38.71,102.4096 C38.7164,102.3764 38.5792,102.3408 38.4712,102.286 C38.4064,102.2716 38.4528,102.2556 38.544,102.3084 C38.3868,102.242 37.788,101.9296 37.4812,101.6868 C37.4768,101.7076 37.2376,101.6256 37.1624,101.5764 L37.218,101.5536 C37.164,101.486 36.9608,101.4 36.9704,101.3564 C36.7764,101.3064 37.6232,101.6996 37.3792,101.6036 C37.3436,101.5336 37.0316,101.4796 37.1144,101.4524 C36.9604,101.3596 36.7828,101.3148 36.6616,101.1852 C36.6992,101.2192 36.8216,101.2056 36.6968,101.132 C36.4772,101.0012 36.6232,101.112 36.44,101.0132 L36.3204,100.9604 C36.2876,100.9952 36.132,100.8308 36.1832,100.9272 C36.1776,100.8764 35.858,100.746 35.9224,100.6944 L35.9864,100.6616 C35.8912,100.6056 35.7988,100.618 35.7112,100.5944 C35.702,100.5812 35.6844,100.5556 35.6944,100.5504 C35.6276,100.6204 35.4776,100.4004 35.3264,100.3904 C35.1504,100.238 34.8336,100.0696 34.7748,99.9608 C34.6096,99.888 34.4532,99.8292 34.2956,99.7004 C34.334,99.7152 34.3816,99.7444 34.4024,99.7328 C34.3116,99.6396 34.272,99.6424 34.1668,99.5904 C34.1964,99.5928 33.9864,99.4024 33.8872,99.2948 C33.7252,99.2204 33.7468,99.2964 33.7148,99.3124 C33.6328,99.1448 33.266,99.084 33.1456,98.9008 C33.204,98.9244 33.3856,99.0068 33.2768,98.9052 C33.1956,98.7376 32.9676,98.78 32.7764,98.5976 L32.7856,98.6976 C32.7164,98.5924 32.4416,98.5212 32.5084,98.4696 C32.4204,98.4448 32.268,98.2776 32.2488,98.3556 C31.932,98.0612 31.372,97.7916 31.2344,97.5304 C31.1768,97.5064 31.0584,97.4076 31.062,97.4576 C31.1208,97.5508 31.196,97.5144 31.2108,97.5596 C31.164,97.5296 31.1424,97.5408 31.1316,97.5448 C31.0324,97.4552 30.95,97.3908 31.0892,97.4108 C30.874,97.2032 30.7644,97.3412 30.4724,97.1016 C30.5048,97.0852 30.488,97.0588 30.3948,97.0004 L30.192,96.9244 C29.9996,96.7744 30.12,96.7868 30.146,96.74 C30.0352,96.6724 29.908,96.5756 29.8368,96.5732 L29.7476,96.4268 C29.8132,96.5328 29.642,96.3896 29.5852,96.3644 L29.642,96.3896 C29.6364,96.358 29.506,96.28 29.4408,96.2408 C29.436,96.2776 29.5524,96.3788 29.6148,96.436 C29.5472,96.416 29.4664,96.3504 29.3788,96.3208 C29.4332,96.296 29.2292,96.1668 29.1484,96.1016 C29.0588,96.0224 29.0124,96.0604 28.9856,96.0392 C28.9992,96.0156 28.8312,95.9212 28.9288,95.9448 C28.9664,95.9612 28.988,96.0204 29.0564,96.0404 C29.0048,95.9784 29.0404,95.9456 28.8884,95.878 C28.774,95.8272 28.8524,95.9792 28.6844,95.8168 C28.7416,95.842 28.7628,95.8316 28.8124,95.8444 L28.6524,95.6952 L28.6164,95.728 C28.6,95.7008 28.6188,95.7092 28.6116,95.6968 C28.5296,95.6984 28.334,95.514 28.2604,95.53 C28.1692,95.4696 28.0924,95.3696 28.012,95.3012 L28.0312,95.31 C27.9452,95.2112 27.7984,95.1236 27.6928,95.0844 L27.7036,95.08 C27.6504,95.0348 27.5144,94.9412 27.4268,94.9108 C27.3076,94.7764 27.488,94.732 27.2952,94.6624 C27.1512,94.5568 27.0184,94.5632 27.0576,94.6304 C26.8196,94.4124 26.48,94.2536 26.286,94.016 C26.2376,94.0032 26.2536,94.0308 26.1704,93.982 C25.8076,93.678 25.3468,93.4132 25.1076,93.1088 C25.2276,93.1776 25.1436,93.0776 25.1584,93.0544 C25.0428,93.0188 25.0784,92.9364 25.0012,92.9692 C24.9832,93.0096 24.9616,93.0188 25.056,93.1136 C24.8188,92.9592 24.48,92.6956 24.3816,92.5684 C24.4308,92.632 24.3752,92.6052 24.318,92.5768 C24.3768,92.5364 24.2208,92.398 24.0832,92.3188 L24.0396,92.3372 L23.9864,92.2392 C23.9312,92.2116 23.88,92.2656 23.7828,92.1368 L23.7752,92.0732 C23.6268,91.998 23.4112,91.8988 23.2956,91.7608 L23.2216,91.6236 C23.1584,91.5816 23.036,91.53 23.1284,91.6268 C22.9164,91.4092 22.768,91.2844 22.7264,91.1844 C22.244,90.9536 21.6604,90.4748 21.2004,90.0832 L21.2348,90.0708 C21.1284,89.9444 21.1344,90.0584 21.0612,89.97 C21.1204,89.9808 21.008,89.8416 21.1292,89.8948 C20.9724,89.722 20.8664,89.7424 20.742,89.656 C20.698,89.6724 20.8512,89.7152 20.7952,89.7356 C20.7664,89.7296 20.5716,89.5028 20.504,89.526 C20.4752,89.4704 20.54,89.4648 20.58,89.466 L20.4524,89.3968 C20.3676,89.2292 20.8376,89.5544 20.7572,89.3692 L20.6512,89.2916 C20.5984,89.1612 20.9616,89.4596 20.7268,89.23 C20.5988,89.1612 20.448,89.1512 20.526,89.2544 C20.29,89.0744 20.3252,89.2768 20.0864,89.066 C20.044,88.9824 20.286,89.2252 20.2728,89.1472 C20.1916,89.0112 20.0256,88.9724 19.9356,88.8724 C20.0328,88.9864 19.8964,88.952 19.816,88.8992 C19.7124,88.772 19.9348,88.9232 19.7644,88.7688 C19.7124,88.772 19.5336,88.6536 19.6564,88.7916 C19.5396,88.7988 19.4888,88.6204 19.3536,88.5852 C19.3352,88.492 19.6184,88.6416 19.4472,88.4536 C19.4416,88.522 19.1644,88.3044 19.2108,88.4536 C19.1468,88.3764 19.1676,88.3368 19.244,88.3596 C19.16,88.2412 18.92,88.2088 18.9576,88.096 L18.884,88.1064 C18.8624,88.0632 18.824,88.0116 18.7904,87.9408 C18.6972,87.858 18.438,87.7336 18.5032,87.6768 C18.4672,87.658 18.2564,87.4676 18.2996,87.5832 C18.4084,87.7264 18.4808,87.686 18.502,87.8092 C18.4508,87.6784 18.3048,87.6476 18.2136,87.5964 L18.2228,87.5604 C18.1684,87.5304 18.068,87.4328 18.016,87.4336 C18.0632,87.4512 18.06,87.418 18.0296,87.38 L17.9488,87.3744 C17.7484,87.2272 17.9644,87.2696 17.776,87.12 L17.9376,87.2136 C17.9024,87.1928 17.8732,87.1032 17.7768,87.0376 C17.7128,87.0412 17.614,87.0252 17.5616,87.026 C17.448,86.9496 17.5516,86.9468 17.4204,86.8924 L17.5872,86.9692 C17.6172,86.9752 17.5508,86.8348 17.4156,86.7144 C17.3192,86.648 17.1412,86.5764 17.26,86.7172 C17.1916,86.6572 17.116,86.5508 17.1924,86.5748 C17.0288,86.4492 17.1792,86.6288 17.0284,86.5308 C16.9952,86.46 16.856,86.2768 16.7856,86.152 L16.9744,86.2208 L16.8836,86.1384 C17.0432,86.1996 16.8552,86.05 16.966,86.062 C16.9104,85.998 16.8216,85.9448 16.75,85.9024 C16.8604,86.1456 16.452,85.8188 16.4408,85.9364 C16.1752,85.7256 16.442,85.6252 16.0836,85.4936 C16.1088,85.5512 15.9384,85.4908 16.1128,85.6156 C15.9664,85.4652 15.9436,85.5876 15.7888,85.3908 C15.9496,85.4872 15.71,85.1876 15.9424,85.3268 C15.9084,85.3376 16.0348,85.444 16.0704,85.4648 C16.032,85.3808 16.1484,85.4084 15.9912,85.2624 C15.8892,85.18 15.7564,85.0592 15.7416,85.1132 C15.7084,85.156 15.892,85.2444 15.7932,85.2276 C15.5888,85.064 15.6144,84.974 15.47,84.9692 C15.5948,85.0768 15.5864,85.146 15.5588,85.1704 L15.4044,85.0548 L15.456,85.0544 C15.2508,84.824 15.3452,85.0388 15.136,84.8268 L15.0836,84.6788 C15.1772,84.684 15.3788,84.9972 15.4088,84.8888 C15.2716,84.7524 15.1904,84.7448 15.076,84.6012 L15.1884,84.68 C15.1404,84.6296 15.1816,84.4876 14.928,84.3532 C14.804,84.2768 14.8764,84.3528 14.848,84.3768 C14.6152,84.1708 14.5204,84.1352 14.3732,83.9992 C14.4532,83.9756 14.1244,83.746 14.3352,83.8476 C14.3768,83.95 14.7048,84.2588 14.8328,84.2844 C14.8108,84.144 15.0016,84.4608 15.11,84.4436 C14.9312,84.2712 14.9988,84.2184 15.008,84.1512 C14.9608,84.1 14.896,84.0716 14.8604,84.0488 C14.8032,84.0664 14.8688,84.128 14.8348,84.1704 C14.6424,83.97 14.4324,83.8028 14.2864,83.7324 C14.238,83.6496 14.2952,83.6328 14.3776,83.7052 C14.1304,83.486 13.8824,83.2348 13.6692,83.0048 C13.7528,83.2076 13.4068,82.7716 13.4548,82.9196 C13.5604,83.052 13.6204,83.196 13.5276,83.158 C13.4568,83.08 13.5564,83.134 13.5376,83.09 C13.4104,83.0284 13.4432,82.8904 13.298,82.8492 C13.5316,83.0432 13.4128,82.8176 13.4996,82.8092 C13.3188,82.6828 13.54,82.7824 13.3876,82.6312 C13.2076,82.5036 12.9984,82.336 12.8172,82.176 C12.6508,81.9156 12.2816,81.6272 12.09,81.436 C12.016,81.3108 12.1372,81.3272 12.0404,81.208 C11.9148,81.0788 12.074,81.3604 11.9144,81.1444 L11.9432,81.1524 C11.8744,81.106 11.642,80.7648 11.5088,80.7816 L11.6252,80.7852 L11.516,80.6996 C11.5336,80.68 11.5116,80.6216 11.58,80.6684 C11.5076,80.5108 11.3372,80.4228 11.2132,80.2944 L11.256,80.4108 C11.0188,80.2144 10.9144,80.0312 10.7016,79.8244 L10.7428,79.7984 L10.6028,79.688 C10.666,79.6892 10.5788,79.5504 10.4884,79.5068 L10.8824,79.7664 C10.948,79.8788 10.7468,79.7032 10.7656,79.7932 C10.7816,79.87 10.976,80.0632 11.0404,80.0648 C10.9728,79.9844 10.962,79.9876 10.8944,79.9396 C10.9196,79.8696 11.0248,79.9884 11.1108,80.016 C11.0712,79.9776 11.0336,79.9072 11.01,79.9124 C11.1064,79.9704 11.1848,80.0456 11.3084,80.1752 C11.2068,80.1044 11.3236,80.2508 11.2784,80.2308 C11.3312,80.2016 11.4612,80.314 11.6008,80.488 C11.6608,80.6476 11.92,80.7584 12.084,80.9564 C11.9692,80.9216 11.8428,80.8584 11.7176,80.7616 C11.808,80.8988 11.8428,80.8904 11.9336,81.0272 C12.0196,81.0544 12.1068,81.048 12.2716,81.1812 L12.248,81.2192 C12.3976,81.34 12.444,81.2956 12.6048,81.4776 C12.8792,81.7904 13.1808,82.0948 13.4028,82.3216 L13.3804,82.36 C13.5716,82.4188 13.82,82.7528 14.02,82.8896 C14.2808,83.2016 14.6784,83.4728 14.774,83.6708 C15.3152,84.1392 15.7852,84.55 16.318,85.0628 L16.1836,85.024 C16.3124,85.0808 16.222,85.1092 16.324,85.1912 C16.2488,85.0524 16.5008,85.2656 16.5948,85.2996 C16.8028,85.5584 17.1476,85.8096 17.3952,85.9704 L17.3744,86.0108 C17.6484,86.148 17.8616,86.4368 18.1256,86.6924 C18.1448,86.7344 18.1672,86.8092 18.2516,86.8788 C18.446,86.9604 18.5212,87.0332 18.7704,87.1932 C18.9308,87.3344 19.18,87.576 19.3248,87.74 C19.9896,88.2 20.5788,88.7724 21.2504,89.2712 L21.2632,89.3484 C21.9556,89.784 22.6568,90.496 23.2288,90.8884 L23.122,90.9136 C23.2736,91.07 23.5212,91.2056 23.5168,91.1232 C23.6696,91.28 23.966,91.4304 24.0288,91.5716 C24.1916,91.7232 24.266,91.7104 24.4168,91.8172 C24.7416,92.1224 24.8784,92.2152 25.2192,92.4592 L25.1404,92.392 C25.0924,92.378 25.066,92.4052 25.1448,92.474 C25.2836,92.5504 25.5848,92.8444 25.5256,92.6676 C25.8424,92.9884 26.3768,93.2716 26.6752,93.5972 C26.6632,93.5532 26.754,93.6148 26.8024,93.6268 C27.1168,93.8612 27.4116,94.1564 27.6912,94.3052 C27.732,94.3536 27.5824,94.284 27.7084,94.3824 C27.7912,94.43 27.732,94.3536 27.8348,94.4116 C28.372,94.754 28.8364,95.2212 29.3128,95.5492 C30.1732,96.1144 31.0348,96.752 31.8488,97.3064 L31.8276,97.3172 C32.1444,97.4392 32.4132,97.83 32.7016,97.876 C32.7548,97.936 32.9432,98.0496 32.8728,98.0504 C33.122,98.1508 33.4528,98.5044 33.8084,98.6576 L33.7228,98.6128 C34.0156,98.8656 34.3312,99.002 34.644,99.2624 C34.6052,99.2468 34.5396,99.2112 34.5176,99.2216 C34.6252,99.3432 34.8764,99.3512 34.8928,99.4816 C34.9688,99.5296 34.9744,99.4748 34.9268,99.4468 C35.6516,99.958 36.4768,100.4252 37.2708,100.8944 C37.8008,101.292 37.2148,101.058 37.6988,101.2688 C37.7248,101.3084 37.7452,101.2528 37.7404,101.2744 C37.9268,101.3564 37.9484,101.534 38.0952,101.5636 C38.0788,101.4808 38.1928,101.5828 38.2164,101.5536 C38.5392,101.8 38.5788,101.8896 38.8752,102.0176 L38.8376,102.0324 C39.202,102.1536 39.5496,102.4172 39.8768,102.4856 C41.658,103.5248 43.4028,104.4532 45.1772,105.3932 C46.9152,106.356 48.6688,107.1964 50.4584,108.1252 C50.8484,108.4048 50.8816,108.4184 51.3656,108.6104 C51.3404,108.6136 51.3096,108.6024 51.3356,108.6284 C51.3892,108.5772 51.6684,108.7796 51.7416,108.7416 C52.4068,109.0796 53.0424,109.3416 53.744,109.6524 C53.63,109.6096 53.5508,109.6372 53.6848,109.6916 L53.8408,109.7124 L53.8552,109.7408 C53.9496,109.7716 54.0616,109.7836 53.9776,109.7216 C55.756,110.4636 57.4552,111.3124 59.2168,111.9944 C59.6248,112.1836 60.2296,112.3884 60.6896,112.5512 C61.9996,113.166 63.2152,113.6432 64.616,114.0844 C64.616,114.0844 64.3768,114.1908 63.7908,114.0256" id="Fill-42" fill="#41413F"></path>
            <path d="M10.4652,79.2576 C10.4736,79.3192 10.5716,79.4568 10.4472,79.388 C10.4604,79.354 10.43,79.2652 10.4652,79.2576" id="Fill-43" fill="#41413F"></path>
            <path d="M13.3084,82.7496 C13.3204,82.746 13.3436,82.8056 13.3504,82.8192 C13.3088,82.7816 13.2512,82.766 13.2324,82.7216 C13.2744,82.7596 13.28,82.7416 13.3084,82.7496" id="Fill-44" fill="#41413F"></path>
            <path d="M14.1144,83.5712 C14.0804,83.582 13.8864,83.4276 13.78,83.3284 L14.1144,83.5712" id="Fill-45" fill="#41413F"></path>
            <path d="M14.7972,84.4084 C14.8456,84.4908 14.8176,84.4836 14.7276,84.3968 C14.7324,84.3788 14.768,84.4016 14.7972,84.4084" id="Fill-46" fill="#41413F"></path>
            <path d="M14.9012,84.4096 C14.966,84.4704 14.986,84.5144 15.0048,84.5572 C15.0212,84.536 14.8436,84.4264 14.9012,84.4096" id="Fill-47" fill="#41413F"></path>
            <path d="M16.5392,86.0684 C16.582,86.1044 16.6884,86.1676 16.7032,86.228 C16.6768,86.1716 16.476,86.0716 16.5392,86.0684" id="Fill-48" fill="#41413F"></path>
            <path d="M17.3728,86.7612 L17.4396,86.8216 C17.4776,86.8748 17.412,86.846 17.37,86.812 L17.3728,86.7612" id="Fill-49" fill="#41413F"></path>
            <polyline id="Fill-50" fill="#41413F" points="32.9576 98.7864 32.8516 98.7336 32.8832 98.718 32.9576 98.7864"></polyline>
            <path d="M40.254,103.3968 C40.364,103.4388 40.3084,103.4628 40.3232,103.4768 C40.2304,103.4256 40.3764,103.4636 40.254,103.3968" id="Fill-51" fill="#41413F"></path>
            <polyline id="Fill-52" fill="#41413F" points="44.3748 105.5632 44.3428 105.5476 44.3844 105.4964 44.3748 105.5632"></polyline>
            <path d="M118.8148,152.7368 C118.8132,157.2356 135.164,160.8968 155.3352,160.911655 C175.5068,160.928 191.86,157.2932 191.862,152.7936 C191.864,148.294 175.5136,144.6332 155.3424,144.61875 C135.1716,144.6032 118.816,148.2372 118.8148,152.7368" id="Fill-53" fill="#B29AE0"></path>
            <path d="M129.442,120.2272 L133.674,148.0784 C133.674,148.0784 127.5488,143.5456 124.6104,148.758 C120.4696,156.1028 137.4568,152.196 137.4568,152.196 L135.0592,125.25 C135.0592,125.25 154.192,128.6448 177.88,125.7036 L181.6432,150.118 C181.6432,150.118 174.6968,143.886 172.3052,150.118 C169.1068,158.4544 185.06,152.9584 185.06,152.9584 L184.2664,121.876 C184.2664,121.876 163.6832,116.6824 129.442,120.2272" id="Fill-54" fill="#231913"></path>
            <path d="M126.3204,79.1904 C126.3204,79.1904 118.6352,12.4524 171.738,33.7564 C171.738,33.7564 188.5552,45.6436 189.324,79.7376 C138.0452,90.6548 126.3204,79.1904 126.3204,79.1904" id="Fill-55" fill="#F8D8B8"></path>
            <path d="M121.464,7.6568 C121.464,7.6568 104.812,52.2924 166.6552,42.1928 L173.196,54.6976 C173.196,54.6976 178.7392,48.9296 180.518,54.9624 C182.2972,60.9952 174.7036,59.0628 174.7036,59.0628 C174.7036,59.0628 181.6692,75.8208 189.324,79.7376 C189.324,79.7376 205.5108,12.9248 178.1488,24.072 C178.1488,24.072 176.52,11.506 159.352,11.1848 C141.5584,10.8524 125.9332,29.5592 121.464,7.6568" id="Fill-56" fill="#231913"></path>
            <path d="M136.658,55.2328 C136.5976,56.8952 135.7632,58.2148 134.794,58.18 C133.8264,58.1448 133.0908,56.7684 133.1508,55.1068 C133.2124,53.4436 134.0468,52.1236 135.0148,52.1584 C135.9832,52.1936 136.7184,53.5704 136.658,55.2328" id="Fill-57" fill="#231913"></path>
            <path d="M162.7508,55.702 C162.6908,57.3648 161.8576,58.6836 160.888,58.6492 C159.92,58.614 159.1832,57.238 159.2444,55.5748 C159.3052,53.9116 160.1404,52.592 161.1076,52.6276 C162.0764,52.6624 162.8124,54.0388 162.7508,55.702" id="Fill-58" fill="#231913"></path>
            <path d="M156.6688,66.162 C156.5256,68.814 154.5544,75.2476 147.1316,75.2424032 C139.5148,75.2388 139.5188,65.6692 139.5188,65.6692 C139.5188,65.6692 148.0936,63.4312 156.6688,66.162" id="Fill-59" fill="#231913"></path>
            <path d="M126.3204,79.1904 L129.442,120.2272 C129.442,120.2272 150.9504,125.586 184.2664,121.876 L189.324,79.7376 C189.324,79.7376 147.4812,86.0984 126.3204,79.1904" id="Fill-60" fill="#F8F7F5"></path>
            <polyline id="Fill-61" fill="#231913" points="142.11 88.0384 140.8148 90.484 142.6648 93.3376 138.6216 112.3556 143.68 118.7396 149.3452 113.1296 146.2732 93.6136 148.4004 90.576 147.26 88.5916 142.11 88.0384"></polyline>
            <path d="M127.1624,87.4916 L126.4752,81.2208 C124.5456,83.3032 122.5028,85.3628 120.3968,87.3828 L123.5864,91.5408 C124.7772,90.208 125.9712,88.8568 127.1624,87.4916" id="Fill-62" fill="#F8F7F5"></path>
            <path d="M120.3968,87.3828 C104.0548,103.0608 81.9196,116.2992 80.8284,118.1116 C79.9488,119.4036 81.2912,121.1788 82.7952,119.012 C82.8504,118.9244 82.9056,118.8396 82.9588,118.7624 C82.9056,118.8396 82.8504,118.9244 82.7952,119.012 C82.392,119.6548 81.9868,120.5384 82.4324,120.9072 C83.5516,121.9376 84.4892,120.936 84.9644,120.3668 C84.6,120.8544 84.2996,121.6332 85.204,122.258 C86.0272,122.8252 86.7544,121.8808 87.0748,121.532 C86.5248,122.1292 86.7504,122.9076 87.4924,123.4212 C89.3888,124.7324 107.196,109.886 123.5864,91.5408 L120.3968,87.3828" id="Fill-63" fill="#F8D8B8"></path>
            <path d="M189.0152,81.9544 L187.712,87.9644 C189.2172,88.7852 190.378,90.056 191.2592,91.6504 L195.6596,88.19 C194.0484,85.5296 191.8844,83.3604 189.0152,81.9544" id="Fill-64" fill="#F8F7F5"></path>
            <path d="M191.2592,91.6504 C197.4868,102.9196 189.6712,130.4092 189.6712,130.4092 C189.546,130.7308 188.8956,132.7816 189.86,133.0816 C190.3236,133.2264 190.6988,132.9564 190.9768,132.5992 C190.9776,133.036 191.0964,133.4672 191.5276,133.6016 C191.9468,133.7324 192.2936,133.5232 192.5624,133.2168 C192.5864,133.6084 192.7192,133.9728 193.1092,134.0936 C193.5716,134.2396 193.9468,133.9688 194.2252,133.6116 C194.226,134.0492 194.3456,134.48 194.7764,134.6136 C195.6772,134.8944 196.2452,133.6132 196.4144,133.1636 C196.4144,133.1636 204.6328,103.0012 195.6596,88.19 L191.2592,91.6504" id="Fill-65" fill="#F8D8B8"></path>
        </g>
    </g>
</svg>